<svg width="503" height="503" viewBox="0 0 503 503" fill="none" xmlns="http://www.w3.org/2000/svg">
<path d="M130.446 36.1637C173.346 33.3997 226 67.4205 226 100C226 108 226.19 117.129 222.5 124.5C217.887 133.714 214.086 146.5 170.578 153.636C158.743 155.577 171.004 123.728 158.124 110.793C130.446 83.0002 126.346 110.793 130.446 120.007C143.362 149.029 140.922 174 125.086 202.467C111.248 227.344 70.0863 235 42.3409 219.512C12.7492 202.994 15.125 194.636 51.5666 202.467C88.0081 210.299 91.7667 181.478 70.0863 128.5C45.6307 68.7411 87.5468 38.9278 130.446 36.1637Z" fill="url(#paint0_linear_4_554)"/>
<path d="M349.555 36.1579C306.656 33.3938 254.002 67.4146 254.002 99.9941C254.002 107.994 253.811 117.123 257.502 124.494C262.115 133.708 265.915 146.494 309.423 153.63C321.259 155.571 308.997 123.722 321.878 110.787C349.555 82.9943 353.656 110.787 349.555 120.001C336.639 149.023 339.079 173.994 354.915 202.462C368.754 227.338 409.915 234.994 437.661 219.507C467.252 202.988 464.877 194.63 428.435 202.462C391.994 210.293 388.235 181.472 409.915 128.494C434.371 68.7352 392.455 38.9219 349.555 36.1579Z" fill="url(#paint1_linear_4_554)"/>
<path d="M223.856 156.479L238.577 140.635C239.388 139.762 240.777 139.787 241.556 140.688L255.232 156.511C255.706 157.06 255.846 157.823 255.597 158.504L241.908 196.034C241.276 197.765 238.839 197.794 238.167 196.079L223.459 158.57C223.178 157.855 223.333 157.042 223.856 156.479Z" fill="url(#paint2_linear_4_554)"/>
<defs>
<linearGradient id="paint0_linear_4_554" x1="68.5" y1="36" x2="222.5" y2="163.5" gradientUnits="userSpaceOnUse">
<stop stop-color="#FBDE95"/>
<stop offset="1" stop-color="#560D1F"/>
</linearGradient>
<linearGradient id="paint1_linear_4_554" x1="411.502" y1="35.9941" x2="257.502" y2="163.494" gradientUnits="userSpaceOnUse">
<stop stop-color="#FBDE95"/>
<stop offset="1" stop-color="#560D1F"/>
</linearGradient>
<linearGradient id="paint2_linear_4_554" x1="240" y1="139" x2="239.5" y2="201" gradientUnits="userSpaceOnUse">
<stop stop-color="#F9FFAE"/>
<stop offset="1" stop-color="#EB0000"/>
</linearGradient>
</defs>
</svg>
