<svg width="503" height="503" viewBox="0 0 503 503" fill="none" xmlns="http://www.w3.org/2000/svg">
<path d="M326.285 93.4953C305.952 96.8479 307.827 120.734 303.8 140.575C302.457 142.929 306.149 144.61 319.237 142.256C332.325 139.902 317.895 118.044 334.339 114.008C392.733 99.6788 371.926 190.008 387.699 264.326C389.793 274.194 409.848 294.591 433.675 283.158C457.503 271.724 457.167 264.326 427.635 270.715C398.102 277.105 404.814 247.512 398.438 172.521C392.062 97.5307 352.797 89.1236 326.285 93.4953Z" fill="url(#paint0_linear_4_529)"/>
<path d="M176.715 94.4699C197.048 97.8225 195.173 121.709 199.2 141.549C200.543 143.903 196.851 145.585 183.763 143.231C170.675 140.877 185.105 119.018 168.661 114.983C110.267 100.653 131.074 190.982 115.301 265.301C113.207 275.168 93.1518 295.566 69.3245 284.132C45.4972 272.699 45.8328 265.301 75.3652 271.69C104.898 278.079 98.1858 248.487 104.562 173.496C110.938 98.5053 150.203 90.0982 176.715 94.4699Z" fill="url(#paint1_linear_4_529)"/>
<path d="M349.392 81.5331C326.367 85.3238 328.489 112.331 323.929 134.763C322.409 137.425 326.589 139.326 341.411 136.665C356.233 134.003 339.891 109.289 358.513 104.726C424.641 88.5245 401.078 190.655 418.94 274.683C421.312 285.84 444.023 308.903 471.007 295.976C497.99 283.048 497.61 274.683 464.166 281.908C430.722 289.132 438.323 255.673 431.102 170.884C423.881 86.0958 379.416 76.5902 349.392 81.5331Z" fill="url(#paint2_linear_4_529)"/>
<path d="M153.608 82.5082C176.633 86.2989 174.511 113.306 179.071 135.739C180.591 138.4 176.411 140.301 161.589 137.64C146.767 134.978 163.109 110.264 144.487 105.702C78.3589 89.4996 101.922 191.63 84.0596 275.659C81.688 286.816 58.9766 309.878 31.9934 296.951C5.0101 284.023 5.39014 275.659 38.8342 282.883C72.2782 290.107 64.6773 256.648 71.8982 171.859C79.119 87.0709 123.584 77.5653 153.608 82.5082Z" fill="url(#paint3_linear_4_529)"/>
<path d="M322.993 77.6341C300.91 81.4248 302.946 108.432 298.572 130.865C297.114 133.526 301.123 135.427 315.338 132.766C329.553 130.104 313.88 105.39 331.74 100.827C395.161 84.6256 372.563 186.756 389.694 270.785C391.969 281.942 413.75 305.004 439.629 292.077C465.508 279.149 465.143 270.785 433.068 278.009C400.993 285.233 408.283 251.774 401.358 166.985C394.432 82.1969 351.787 72.6913 322.993 77.6341Z" fill="url(#paint4_linear_4_529)"/>
<path d="M180.007 78.6087C202.09 82.3994 200.054 109.406 204.428 131.839C205.886 134.501 201.877 136.402 187.662 133.74C173.447 131.079 189.12 106.365 171.26 101.802C107.839 85.6002 130.437 187.731 113.306 271.759C111.031 282.916 89.2497 305.979 63.3711 293.051C37.4924 280.124 37.8569 271.759 69.9318 278.983C102.007 286.207 94.7171 252.748 101.642 167.96C108.568 83.1715 151.213 73.6659 180.007 78.6087Z" fill="url(#paint5_linear_4_529)"/>
<path d="M309.81 85.9C285.034 89.9771 287.318 119.024 282.411 143.152C280.775 146.015 285.273 148.06 301.222 145.197C317.17 142.334 299.586 115.753 319.624 110.846C390.779 93.4196 365.425 203.267 384.645 293.644C387.197 305.644 411.635 330.449 440.67 316.545C469.704 302.641 469.295 293.644 433.309 301.414C397.322 309.184 405.501 273.197 397.731 182.002C389.961 90.8074 342.116 80.5836 309.81 85.9Z" fill="url(#paint6_linear_4_529)"/>
<path d="M193.19 86.8746C217.966 90.9517 215.682 119.999 220.589 144.127C222.225 146.99 217.727 149.034 201.778 146.172C185.83 143.309 203.414 116.728 183.376 111.82C112.221 94.3942 137.575 204.242 118.355 294.619C115.803 306.618 91.3648 331.424 62.3302 317.519C33.2956 303.615 33.7046 294.619 69.6911 302.388C105.678 310.158 97.4989 274.171 105.269 182.977C113.039 91.782 160.884 81.5583 193.19 86.8746Z" fill="url(#paint7_linear_4_529)"/>
<path d="M331.57 72.9867C303.562 77.5861 306.144 110.354 300.597 137.573C298.748 140.802 303.833 143.109 321.862 139.88C339.891 136.65 320.013 106.664 342.664 101.128C423.101 81.4697 394.44 205.388 416.166 307.343C419.051 320.88 446.677 348.862 479.499 333.177C512.32 317.492 511.858 307.343 471.178 316.108C430.497 324.873 439.743 284.276 430.959 181.399C422.176 78.5228 368.09 66.9894 331.57 72.9867Z" fill="url(#paint8_linear_4_529)"/>
<path d="M171.43 73.9614C199.438 78.5607 196.856 111.329 202.403 138.548C204.252 141.777 199.167 144.084 181.138 140.854C163.109 137.625 182.987 107.639 160.336 102.103C79.8993 82.4443 108.56 206.363 86.8335 308.317C83.9487 321.854 56.3232 349.837 23.5014 334.152C-9.32033 318.466 -8.85805 308.317 31.8224 317.082C72.5029 325.848 63.2573 285.251 72.0406 182.374C80.8239 79.4975 134.91 67.964 171.43 73.9614Z" fill="url(#paint9_linear_4_529)"/>
<path d="M305.995 69.0873C279.064 73.6867 281.547 106.455 276.213 133.674C274.435 136.903 279.325 139.21 296.66 135.98C313.995 132.751 294.882 102.765 316.662 97.2286C394.005 77.5703 366.446 201.489 387.338 303.443C390.112 316.98 416.675 344.963 448.234 329.278C479.793 313.592 479.349 303.443 440.233 312.208C401.117 320.974 410.007 280.377 401.562 177.5C393.116 74.6234 341.11 63.09 305.995 69.0873Z" fill="url(#paint10_linear_4_529)"/>
<path d="M197.006 70.0624C223.936 74.6618 221.453 107.43 226.787 134.649C228.565 137.878 223.675 140.185 206.34 136.955C189.005 133.726 208.118 103.74 186.338 98.2037C108.995 78.5454 136.554 202.464 115.662 304.418C112.888 317.955 86.3255 345.938 54.7661 330.253C23.2068 314.567 23.6513 304.418 62.7671 313.183C101.883 321.949 92.993 281.352 101.438 178.475C109.884 75.5985 161.89 64.0651 197.006 70.0624Z" fill="url(#paint11_linear_4_529)"/>
<path d="M300.434 87.8256C276.197 91.8184 278.431 120.266 273.631 143.895C272.03 146.698 276.431 148.701 292.033 145.897C307.635 143.094 290.433 117.062 310.035 112.256C379.643 95.1899 354.84 202.768 373.643 291.277C376.139 303.029 400.046 327.322 428.449 313.705C456.853 300.088 456.453 291.277 421.248 298.887C386.044 306.496 394.045 271.253 386.444 181.942C378.843 92.6316 332.038 82.6191 300.434 87.8256Z" fill="url(#paint12_linear_4_529)"/>
<path d="M202.566 88.8007C226.803 92.7935 224.569 121.241 229.369 144.87C230.97 147.674 226.569 149.676 210.967 146.873C195.365 144.069 212.567 118.037 192.965 113.231C123.357 96.165 148.16 203.743 129.357 292.252C126.861 304.004 102.954 328.297 74.5508 314.68C46.1473 301.063 46.5474 292.252 81.7516 299.862C116.956 307.471 108.955 272.228 116.556 182.917C124.157 93.6067 170.962 83.5942 202.566 88.8007Z" fill="url(#paint13_linear_4_529)"/>
<path d="M321.068 74.9128C293.734 79.428 296.254 111.596 290.84 138.316C289.036 141.486 293.999 143.751 311.594 140.581C329.189 137.411 309.789 107.973 331.896 102.539C410.399 83.2404 382.427 204.89 403.632 304.976C406.447 318.266 433.409 345.736 465.441 330.338C497.474 314.94 497.023 304.976 457.32 313.581C417.618 322.186 426.641 282.332 418.069 181.34C409.497 80.3475 356.711 69.0254 321.068 74.9128Z" fill="url(#paint14_linear_4_529)"/>
<path d="M181.932 75.8875C209.266 80.4026 206.746 112.571 212.16 139.291C213.964 142.461 209.001 144.725 191.406 141.555C173.811 138.385 193.211 108.948 171.104 103.513C92.6007 84.215 120.573 205.864 99.3683 305.951C96.5528 319.24 69.5913 346.71 37.5586 331.312C5.52582 315.914 5.97698 305.951 45.6796 314.556C85.3821 323.16 76.3588 283.307 84.931 182.315C93.5031 81.3222 146.289 70 181.932 75.8875Z" fill="url(#paint15_linear_4_529)"/>
<path d="M295.644 71.0134C269.252 75.5286 271.685 107.697 266.458 134.417C264.716 137.587 269.507 139.851 286.496 136.681C303.485 133.511 284.754 104.074 306.099 98.6393C381.894 79.341 354.887 200.99 375.36 301.077C378.079 314.366 404.11 341.836 435.039 326.438C465.967 311.04 465.531 301.077 427.198 309.682C388.864 318.286 397.576 278.433 389.3 177.441C381.023 76.4481 330.057 65.126 295.644 71.0134Z" fill="url(#paint16_linear_4_529)"/>
<path d="M207.356 71.988C233.748 76.5032 231.314 108.671 236.542 135.391C238.284 138.562 233.493 140.826 216.504 137.656C199.515 134.486 218.246 105.048 196.901 99.6139C121.106 80.3156 148.113 201.965 127.64 302.052C124.921 315.341 98.8896 342.811 67.9614 327.413C37.0333 312.015 37.4689 302.052 75.8024 310.656C114.136 319.261 105.424 279.408 113.7 178.415C121.977 77.4227 172.943 66.1006 207.356 71.988Z" fill="url(#paint17_linear_4_529)"/>
<path d="M280.633 78.9082C251.103 83.7675 253.826 118.388 247.977 147.145C246.027 150.557 251.389 152.994 270.397 149.582C289.406 146.17 268.448 114.489 292.331 108.64C377.139 87.8706 346.92 218.793 369.828 326.509C372.869 340.811 401.996 370.375 436.602 353.804C471.208 337.232 470.72 326.509 427.829 335.77C384.937 345.03 394.685 302.139 385.425 193.448C376.164 84.7572 319.138 72.572 280.633 78.9082Z" fill="url(#paint18_linear_4_529)"/>
<path d="M222.367 79.8833C251.897 84.7426 249.174 119.363 255.023 148.12C256.973 151.532 251.611 153.969 232.603 150.557C213.594 147.145 234.552 115.464 210.669 109.615C125.861 88.8457 156.08 219.768 133.172 327.484C130.131 341.786 101.004 371.35 66.3981 354.779C31.7925 338.207 32.2799 327.484 75.1714 336.745C118.063 346.006 108.315 303.114 117.575 194.423C126.836 85.7323 183.862 73.5471 222.367 79.8833Z" fill="url(#paint19_linear_4_529)"/>
<path d="M297.778 65.4387C264.25 70.9309 267.341 110.061 260.7 142.564C258.487 146.42 264.574 149.174 286.157 145.318C307.739 141.462 283.943 105.654 311.06 99.0432C407.351 75.5685 373.041 223.545 399.05 345.292C402.504 361.457 435.575 394.872 474.866 376.142C514.158 357.412 513.604 345.292 464.905 355.759C416.206 366.226 427.274 317.748 416.759 194.899C406.244 72.0495 341.497 58.277 297.778 65.4387Z" fill="url(#paint20_linear_4_529)"/>
<path d="M205.222 66.4133C238.75 71.9056 235.659 111.036 242.3 143.538C244.513 147.395 238.426 150.149 216.843 146.293C195.261 142.437 219.057 106.629 191.94 100.018C95.6487 76.5431 129.959 224.519 103.95 346.267C100.496 362.432 67.4253 395.847 28.1339 377.117C-11.1575 358.386 -10.6041 346.267 38.0951 356.734C86.7943 367.201 75.7263 318.722 86.2409 195.873C96.7555 73.0241 161.503 59.2516 205.222 66.4133Z" fill="url(#paint21_linear_4_529)"/>
<path d="M273.027 61.5392C240.711 67.0315 243.69 106.162 237.289 138.664C235.156 142.521 241.023 145.275 261.826 141.419C282.628 137.563 259.692 101.755 285.829 95.1438C378.64 71.6691 345.569 219.645 370.639 341.393C373.968 357.558 405.843 390.973 443.714 372.243C481.586 353.512 481.052 341.393 434.113 351.86C387.174 362.327 397.842 313.848 387.708 190.999C377.573 68.1501 315.166 54.3776 273.027 61.5392Z" fill="url(#paint22_linear_4_529)"/>
<path d="M229.973 62.5139C262.289 68.0061 259.31 107.136 265.711 139.639C267.844 143.495 261.977 146.25 241.174 142.393C220.372 138.537 243.308 102.729 217.171 96.1184C124.36 72.6437 157.431 220.62 132.361 342.367C129.032 358.533 97.1569 391.948 59.2856 373.217C21.4144 354.487 21.9478 342.367 68.8868 352.834C115.826 363.301 105.158 314.823 115.292 191.974C125.427 69.1247 187.834 55.3522 229.973 62.5139Z" fill="url(#paint23_linear_4_529)"/>
<defs>
<linearGradient id="paint0_linear_4_529" x1="377.139" y1="92.5557" x2="273.716" y2="198.54" gradientUnits="userSpaceOnUse">
<stop stop-color="#F1C7BA"/>
<stop offset="1" stop-color="#FFB800"/>
</linearGradient>
<linearGradient id="paint1_linear_4_529" x1="125.861" y1="93.5303" x2="229.284" y2="199.515" gradientUnits="userSpaceOnUse">
<stop stop-color="#F1C7BA"/>
<stop offset="1" stop-color="#FFB800"/>
</linearGradient>
<linearGradient id="paint2_linear_4_529" x1="406.982" y1="80.4707" x2="290.051" y2="200.488" gradientUnits="userSpaceOnUse">
<stop stop-color="#F1C7BA"/>
<stop offset="1" stop-color="#FFB800"/>
</linearGradient>
<linearGradient id="paint3_linear_4_529" x1="96.0184" y1="81.4458" x2="212.949" y2="201.463" gradientUnits="userSpaceOnUse">
<stop stop-color="#F1C7BA"/>
<stop offset="1" stop-color="#FFB800"/>
</linearGradient>
<linearGradient id="paint4_linear_4_529" x1="378.225" y1="76.5718" x2="261.269" y2="191.701" gradientUnits="userSpaceOnUse">
<stop stop-color="#F1C7BA"/>
<stop offset="1" stop-color="#FFB800"/>
</linearGradient>
<linearGradient id="paint5_linear_4_529" x1="124.775" y1="77.5464" x2="241.731" y2="192.676" gradientUnits="userSpaceOnUse">
<stop stop-color="#F1C7BA"/>
<stop offset="1" stop-color="#FFB800"/>
</linearGradient>
<linearGradient id="paint6_linear_4_529" x1="371.777" y1="84.7573" x2="246.013" y2="213.898" gradientUnits="userSpaceOnUse">
<stop stop-color="#F1C7BA"/>
<stop offset="1" stop-color="#FFB800"/>
</linearGradient>
<linearGradient id="paint7_linear_4_529" x1="131.223" y1="85.7319" x2="256.987" y2="214.872" gradientUnits="userSpaceOnUse">
<stop stop-color="#F1C7BA"/>
<stop offset="1" stop-color="#FFB800"/>
</linearGradient>
<linearGradient id="paint8_linear_4_529" x1="401.62" y1="71.6978" x2="259.754" y2="217.674" gradientUnits="userSpaceOnUse">
<stop stop-color="#F1C7BA"/>
<stop offset="1" stop-color="#FFB800"/>
</linearGradient>
<linearGradient id="paint9_linear_4_529" x1="101.38" y1="72.6724" x2="243.246" y2="218.649" gradientUnits="userSpaceOnUse">
<stop stop-color="#F1C7BA"/>
<stop offset="1" stop-color="#FFB800"/>
</linearGradient>
<linearGradient id="paint10_linear_4_529" x1="373.351" y1="67.7983" x2="231.435" y2="208.209" gradientUnits="userSpaceOnUse">
<stop stop-color="#F1C7BA"/>
<stop offset="1" stop-color="#FFB800"/>
</linearGradient>
<linearGradient id="paint11_linear_4_529" x1="129.649" y1="68.7734" x2="271.565" y2="209.185" gradientUnits="userSpaceOnUse">
<stop stop-color="#F1C7BA"/>
<stop offset="1" stop-color="#FFB800"/>
</linearGradient>
<linearGradient id="paint12_linear_4_529" x1="361.054" y1="86.7065" x2="237.885" y2="213.043" gradientUnits="userSpaceOnUse">
<stop stop-color="#F1C7BA"/>
<stop offset="1" stop-color="#FFB800"/>
</linearGradient>
<linearGradient id="paint13_linear_4_529" x1="141.946" y1="87.6816" x2="265.115" y2="214.018" gradientUnits="userSpaceOnUse">
<stop stop-color="#F1C7BA"/>
<stop offset="1" stop-color="#FFB800"/>
</linearGradient>
<linearGradient id="paint14_linear_4_529" x1="389.435" y1="73.6475" x2="250.146" y2="216.136" gradientUnits="userSpaceOnUse">
<stop stop-color="#F1C7BA"/>
<stop offset="1" stop-color="#FFB800"/>
</linearGradient>
<linearGradient id="paint15_linear_4_529" x1="113.565" y1="74.6221" x2="252.854" y2="217.111" gradientUnits="userSpaceOnUse">
<stop stop-color="#F1C7BA"/>
<stop offset="1" stop-color="#FFB800"/>
</linearGradient>
<linearGradient id="paint16_linear_4_529" x1="361.653" y1="69.748" x2="222.339" y2="207.348" gradientUnits="userSpaceOnUse">
<stop stop-color="#F1C7BA"/>
<stop offset="1" stop-color="#FFB800"/>
</linearGradient>
<linearGradient id="paint17_linear_4_529" x1="141.347" y1="70.7227" x2="280.661" y2="208.323" gradientUnits="userSpaceOnUse">
<stop stop-color="#F1C7BA"/>
<stop offset="1" stop-color="#FFB800"/>
</linearGradient>
<linearGradient id="paint18_linear_4_529" x1="354.491" y1="77.5464" x2="204.598" y2="231.465" gradientUnits="userSpaceOnUse">
<stop stop-color="#F1C7BA"/>
<stop offset="1" stop-color="#FFB800"/>
</linearGradient>
<linearGradient id="paint19_linear_4_529" x1="148.509" y1="78.5215" x2="298.402" y2="232.44" gradientUnits="userSpaceOnUse">
<stop stop-color="#F1C7BA"/>
<stop offset="1" stop-color="#FFB800"/>
</linearGradient>
<linearGradient id="paint20_linear_4_529" x1="381.637" y1="63.8994" x2="212.241" y2="238.637" gradientUnits="userSpaceOnUse">
<stop stop-color="#F1C7BA"/>
<stop offset="1" stop-color="#FFB800"/>
</linearGradient>
<linearGradient id="paint21_linear_4_529" x1="121.363" y1="64.874" x2="290.759" y2="239.612" gradientUnits="userSpaceOnUse">
<stop stop-color="#F1C7BA"/>
<stop offset="1" stop-color="#FFB800"/>
</linearGradient>
<linearGradient id="paint22_linear_4_529" x1="353.855" y1="60" x2="184.38" y2="228.5" gradientUnits="userSpaceOnUse">
<stop stop-color="#F1C7BA"/>
<stop offset="1" stop-color="#FFB800"/>
</linearGradient>
<linearGradient id="paint23_linear_4_529" x1="149.145" y1="60.9746" x2="318.62" y2="229.475" gradientUnits="userSpaceOnUse">
<stop stop-color="#F1C7BA"/>
<stop offset="1" stop-color="#FFB800"/>
</linearGradient>
</defs>
</svg>
