<svg width="503" height="503" viewBox="0 0 503 503" fill="none" xmlns="http://www.w3.org/2000/svg">
<path fill-rule="evenodd" clip-rule="evenodd" d="M270.867 164.586C262.105 168.701 252.321 171 242 171C232.835 171 224.093 169.187 216.114 165.899C182.572 153.186 168.078 163.91 159.269 185.884C153.007 202.879 136.669 215 117.5 215C92.9233 215 73 195.077 73 170.5C73 145.923 92.9233 126 117.5 126C120.875 126 124.163 126.376 127.323 127.088C150.627 131.734 167.569 125.433 175.207 90.18C181.202 58.7537 208.827 35 242 35C273.677 35 300.296 56.6604 307.852 85.9782C320.559 130.296 343.39 135.801 372.725 127.861C376.772 126.65 381.06 126 385.5 126C410.077 126 430 145.923 430 170.5C430 195.077 410.077 215 385.5 215C367.081 215 351.275 203.809 344.511 187.855C331.921 160.187 313.12 146.107 270.867 164.586Z" fill="url(#paint0_radial_4_509)"/>
<defs>
<radialGradient id="paint0_radial_4_509" cx="0" cy="0" r="1" gradientUnits="userSpaceOnUse" gradientTransform="translate(240.5 35) rotate(91.0336) scale(194.032 309.717)">
<stop stop-color="#F8ED8F"/>
<stop offset="0.510417" stop-color="#F88F8F"/>
<stop offset="1" stop-color="#93727A"/>
</radialGradient>
</defs>
</svg>
