<svg width="503" height="503" viewBox="0 0 503 503" fill="none" xmlns="http://www.w3.org/2000/svg">
<path fill-rule="evenodd" clip-rule="evenodd" d="M109.51 195.83C100.952 206.036 90.6226 212 79.5 212C49.9528 212 26 169.915 26 118C26 66.0852 49.9528 24 79.5 24C90.6192 24 100.946 29.9599 109.502 40.1608C174.195 114.733 191.644 100.894 234.904 66.5826C235.622 66.0132 236.347 65.4383 237.079 64.8579C241.447 61.1925 246.337 59.1403 251.5 59.1403C256.083 59.1403 260.45 60.757 264.429 63.6836C266.113 64.8429 267.756 65.9793 269.361 67.0897C312.557 96.9689 328.49 107.989 395.329 38.0714C403.511 29.1508 413.163 24 423.5 24C453.047 24 477 66.0852 477 118C477 169.915 453.047 212 423.5 212C413.171 212 403.527 206.858 395.349 197.95C328.493 128.009 312.562 139.029 269.361 168.911C267.752 170.025 266.104 171.164 264.415 172.327C260.44 175.247 256.077 176.86 251.5 176.86C246.333 176.86 241.438 174.804 237.068 171.133C236.339 170.556 235.618 169.984 234.904 169.417C191.645 135.107 174.196 121.268 109.51 195.83Z" fill="url(#paint0_linear_4_520)"/>
<defs>
<linearGradient id="paint0_linear_4_520" x1="251.5" y1="24" x2="251.5" y2="212" gradientUnits="userSpaceOnUse">
<stop stop-color="#FFF960"/>
<stop offset="0.927083" stop-color="#FF7D7D"/>
</linearGradient>
</defs>
</svg>
