<svg width="503" height="503" viewBox="0 0 503 503" fill="none" xmlns="http://www.w3.org/2000/svg">
<path d="M222.538 96.545C239.684 84.7826 262.321 84.8599 279.387 96.7391L353.029 148L396.772 181.438C418.141 197.773 422.758 228.087 407.22 250.044L382.637 284.782C379.258 289.557 376.743 294.888 375.207 300.532L359.286 359.017C355.328 373.556 345.024 385.535 331.24 391.622L271.082 418.189C258.301 423.834 243.741 423.873 230.93 418.297L169.962 391.763C155.809 385.603 145.294 373.252 141.472 358.297L126.818 300.957C125.305 295.036 122.719 289.442 119.189 284.454L94.5908 249.694C79.1529 227.878 83.5996 197.78 104.686 181.36L147.529 148L222.538 96.545Z" fill="url(#paint0_linear_4_51)"/>
<defs>
<linearGradient id="paint0_linear_4_51" x1="251.029" y1="77" x2="251.029" y2="427.045" gradientUnits="userSpaceOnUse">
<stop stop-color="#FCCA7F"/>
<stop offset="1" stop-color="#E27749"/>
</linearGradient>
</defs>
</svg>
