<svg width="503" height="503" viewBox="0 0 503 503" fill="none" xmlns="http://www.w3.org/2000/svg">
<path d="M195.089 288.193C195.669 286.313 198.331 286.313 198.911 288.193L223.048 366.41C223.445 367.697 222.483 369 221.137 369H172.863C171.517 369 170.555 367.697 170.952 366.41L195.089 288.193Z" fill="url(#paint0_linear_4_376)"/>
<path d="M168.089 349.807C168.669 351.687 171.331 351.687 171.911 349.807L196.048 271.59C196.445 270.303 195.483 269 194.137 269H145.863C144.517 269 143.555 270.303 143.952 271.59L168.089 349.807Z" fill="url(#paint1_linear_4_376)"/>
<path d="M222.089 349.807C222.669 351.687 225.331 351.687 225.911 349.807L250.048 271.59C250.445 270.303 249.483 269 248.137 269H199.863C198.517 269 197.555 270.303 197.952 271.59L222.089 349.807Z" fill="url(#paint2_linear_4_376)"/>
<path d="M276.089 349.807C276.669 351.687 279.331 351.687 279.911 349.807L304.048 271.59C304.445 270.303 303.483 269 302.137 269H253.863C252.517 269 251.555 270.303 251.952 271.59L276.089 349.807Z" fill="url(#paint3_linear_4_376)"/>
<path d="M330.089 349.807C330.669 351.687 333.331 351.687 333.911 349.807L358.048 271.59C358.445 270.303 357.483 269 356.137 269H307.863C306.517 269 305.555 270.303 305.952 271.59L330.089 349.807Z" fill="url(#paint4_linear_4_376)"/>
<path d="M249.089 288.193C249.669 286.313 252.331 286.313 252.911 288.193L277.048 366.41C277.445 367.697 276.483 369 275.137 369H226.863C225.517 369 224.555 367.697 224.952 366.41L249.089 288.193Z" fill="url(#paint5_linear_4_376)"/>
<path d="M303.089 288.193C303.669 286.313 306.331 286.313 306.911 288.193L331.048 366.41C331.445 367.697 330.483 369 329.137 369H280.863C279.517 369 278.555 367.697 278.952 366.41L303.089 288.193Z" fill="url(#paint6_linear_4_376)"/>
<defs>
<linearGradient id="paint0_linear_4_376" x1="197" y1="282" x2="197" y2="398" gradientUnits="userSpaceOnUse">
<stop stop-color="white"/>
<stop offset="0.864583" stop-color="#969696"/>
</linearGradient>
<linearGradient id="paint1_linear_4_376" x1="170" y1="356" x2="170" y2="240" gradientUnits="userSpaceOnUse">
<stop stop-color="#837171"/>
<stop offset="0.817708" stop-color="white"/>
</linearGradient>
<linearGradient id="paint2_linear_4_376" x1="224" y1="356" x2="224" y2="240" gradientUnits="userSpaceOnUse">
<stop stop-color="#837171"/>
<stop offset="0.817708" stop-color="white"/>
</linearGradient>
<linearGradient id="paint3_linear_4_376" x1="278" y1="356" x2="278" y2="240" gradientUnits="userSpaceOnUse">
<stop stop-color="#837171"/>
<stop offset="0.817708" stop-color="white"/>
</linearGradient>
<linearGradient id="paint4_linear_4_376" x1="332" y1="356" x2="332" y2="240" gradientUnits="userSpaceOnUse">
<stop stop-color="#837171"/>
<stop offset="0.817708" stop-color="white"/>
</linearGradient>
<linearGradient id="paint5_linear_4_376" x1="251" y1="282" x2="251" y2="398" gradientUnits="userSpaceOnUse">
<stop stop-color="white"/>
<stop offset="0.864583" stop-color="#969696"/>
</linearGradient>
<linearGradient id="paint6_linear_4_376" x1="305" y1="282" x2="305" y2="398" gradientUnits="userSpaceOnUse">
<stop stop-color="white"/>
<stop offset="0.864583" stop-color="#969696"/>
</linearGradient>
</defs>
</svg>
