<svg width="503" height="503" viewBox="0 0 503 503" fill="none" xmlns="http://www.w3.org/2000/svg">
<path fill-rule="evenodd" clip-rule="evenodd" d="M336.478 313.609C336.478 336.589 317.849 355.217 294.87 355.217C284.002 355.217 274.107 351.051 266.695 344.228C255.848 334.291 247.224 334.673 237.263 345.527C229.658 353.809 218.739 359 206.609 359C183.629 359 165 340.371 165 317.391C165 294.411 183.629 275.782 206.609 275.782C217.51 275.782 227.432 279.975 234.85 286.835C245.632 296.676 254.22 296.307 264.12 285.577C271.73 277.234 282.688 272 294.87 272C317.849 272 336.478 290.629 336.478 313.609Z" fill="url(#paint0_linear_4_409)"/>
<path d="M205.358 293.833C194.373 284.852 183.888 292.776 168.908 305.983L166.272 307.961C165.274 310.075 163.772 321.155 166.772 330.677C170.1 341.243 175.899 348.245 181.891 353C184.72 351.767 190.079 346.661 200.865 340.321C214.346 332.397 215.345 340.321 226.33 348.245C237.315 356.17 256.289 336.623 265.276 327.643C274.264 318.662 283.751 323.416 299.23 340.321C314.709 357.226 350.659 322.888 362.144 302.814C373.628 282.739 347.663 290.663 334.182 305.983C320.7 321.303 298.231 317.605 292.239 309.681C286.248 301.757 265.276 293.833 240.31 313.907C215.345 333.982 216.343 302.814 205.358 293.833Z" fill="url(#paint1_linear_4_409)"/>
<defs>
<linearGradient id="paint0_linear_4_409" x1="250.739" y1="272" x2="250.739" y2="359" gradientUnits="userSpaceOnUse">
<stop stop-color="#ECECEC"/>
<stop offset="1" stop-color="#B6B2B2"/>
</linearGradient>
<linearGradient id="paint1_linear_4_409" x1="262.379" y1="290" x2="262.379" y2="351.943" gradientUnits="userSpaceOnUse">
<stop stop-color="#FB9090"/>
<stop offset="1" stop-color="#F90000"/>
</linearGradient>
</defs>
</svg>
