<svg width="503" height="503" viewBox="0 0 503 503" fill="none" xmlns="http://www.w3.org/2000/svg">
<path fill-rule="evenodd" clip-rule="evenodd" d="M336.478 313.609C336.478 336.589 317.849 355.217 294.87 355.217C284.002 355.217 274.107 351.051 266.695 344.228C255.848 334.291 247.224 334.673 237.263 345.527C229.658 353.809 218.739 359 206.609 359C183.629 359 165 340.371 165 317.391C165 294.411 183.629 275.782 206.609 275.782C217.51 275.782 227.432 279.975 234.85 286.835C245.632 296.676 254.22 296.307 264.12 285.577C271.73 277.234 282.688 272 294.87 272C317.849 272 336.478 290.629 336.478 313.609Z" fill="url(#paint0_linear_4_359)"/>
<path d="M200.269 302.23C213.769 290.73 245.269 304.73 264.269 319.73C281.069 332.93 277.602 345.23 273.769 349.73C271.769 348.23 265.369 343.83 255.769 338.23C243.769 331.23 248.269 354.23 241.769 368.23C235.269 382.23 206.769 391.23 183.269 364.23C159.769 337.23 186.769 313.73 200.269 302.23Z" fill="url(#paint1_linear_4_359)"/>
<defs>
<linearGradient id="paint0_linear_4_359" x1="250.739" y1="272" x2="250.739" y2="359" gradientUnits="userSpaceOnUse">
<stop stop-color="#ECECEC"/>
<stop offset="1" stop-color="#B6B2B2"/>
</linearGradient>
<linearGradient id="paint1_linear_4_359" x1="225.465" y1="298" x2="225.465" y2="381.661" gradientUnits="userSpaceOnUse">
<stop stop-color="#FF517B"/>
<stop offset="1" stop-color="#FF0000"/>
</linearGradient>
</defs>
</svg>
