<svg width="503" height="503" viewBox="0 0 503 503" fill="none" xmlns="http://www.w3.org/2000/svg">
<circle cx="252" cy="309" r="42" fill="url(#paint0_linear_4_456)"/>
<path d="M253.86 286.628C264.86 278.128 275.36 285.628 290.36 298.128L293 300C294 302 295.504 312.488 292.5 321.5C289.167 331.5 283.36 338.128 277.36 342.628C274.527 341.461 269.16 336.628 258.36 330.628C244.86 323.128 243.86 330.628 232.86 338.128C221.86 345.628 202.86 327.128 193.86 318.628C184.86 310.128 175.36 314.628 159.86 330.628C144.36 346.628 108.36 314.128 96.8604 295.128C85.3604 276.128 111.36 283.628 124.86 298.128C138.36 312.628 160.86 309.128 166.86 301.628C172.86 294.128 193.86 286.628 218.86 305.628C243.86 324.628 242.86 295.128 253.86 286.628Z" fill="url(#paint1_linear_4_456)"/>
<defs>
<linearGradient id="paint0_linear_4_456" x1="252" y1="267" x2="252" y2="351" gradientUnits="userSpaceOnUse">
<stop stop-color="white"/>
<stop offset="1" stop-color="#8E8484"/>
</linearGradient>
<linearGradient id="paint1_linear_4_456" x1="196.761" y1="283" x2="196.761" y2="341.628" gradientUnits="userSpaceOnUse">
<stop stop-color="#FB9090"/>
<stop offset="1" stop-color="#F90000"/>
</linearGradient>
</defs>
</svg>
